<svg version="1.1" viewBox="0.0 0.0 50.0 50.0" fill="none" stroke="none" stroke-linecap="square" stroke-miterlimit="10" xmlns:xlink="http://www.w3.org/1999/xlink" xmlns="http://www.w3.org/2000/svg"><clipPath id="p.0"><path d="m0 0l50.0 0l0 50.0l-50.0 0l0 -50.0z" clip-rule="nonzero"/></clipPath><g clip-path="url(#p.0)"><path fill="#000000" fill-opacity="0.0" d="m0 0l50.0 0l0 50.0l-50.0 0z" fill-rule="evenodd"/><path fill="#000000" d="m14.156498 13.338476l0 0c0 -6.0547557 4.9751167 -10.963105 11.112236 -10.963105l0 0c2.9471474 0 5.773588 1.1550381 7.8575363 3.2110193c2.08395 2.0559812 3.2546997 4.84449 3.2546997 7.7520857l0 0c0 6.054756 -4.9751167 10.963106 -11.112236 10.963106l0 0c-6.1371193 0 -11.112236 -4.90835 -11.112236 -10.963106z" fill-rule="evenodd"/><path stroke="#000000" stroke-width="1.0" stroke-linejoin="round" stroke-linecap="butt" d="m14.156498 13.338476l0 0c0 -6.0547557 4.9751167 -10.963105 11.112236 -10.963105l0 0c2.9471474 0 5.773588 1.1550381 7.8575363 3.2110193c2.08395 2.0559812 3.2546997 4.84449 3.2546997 7.7520857l0 0c0 6.054756 -4.9751167 10.963106 -11.112236 10.963106l0 0c-6.1371193 0 -11.112236 -4.90835 -11.112236 -10.963106z" fill-rule="evenodd"/><path fill="#000000" d="m26.389412 30.75374l0 0c0 -6.054756 4.9751186 -10.963106 11.112236 -10.963106l0 0c2.9471474 0 5.77359 1.1550388 7.8575363 3.2110195c2.08395 2.0559807 3.2546997 4.84449 3.2546997 7.7520866l0 0c0 6.0547543 -4.9751167 10.963106 -11.112236 10.963106l0 0c-6.1371174 0 -11.112236 -4.908352 -11.112236 -10.963106z" fill-rule="evenodd"/><path stroke="#000000" stroke-width="1.0" stroke-linejoin="round" stroke-linecap="butt" d="m26.389412 30.75374l0 0c0 -6.054756 4.9751186 -10.963106 11.112236 -10.963106l0 0c2.9471474 0 5.77359 1.1550388 7.8575363 3.2110195c2.08395 2.0559807 3.2546997 4.84449 3.2546997 7.7520866l0 0c0 6.0547543 -4.9751167 10.963106 -11.112236 10.963106l0 0c-6.1371174 0 -11.112236 -4.908352 -11.112236 -10.963106z" fill-rule="evenodd"/><path fill="#000000" d="m1.8818704 30.75374l0 0c0 -6.054756 4.9751177 -10.963106 11.112236 -10.963106l0 0c2.9471483 0 5.77359 1.1550388 7.857538 3.2110195c2.0839481 2.0559807 3.2546978 4.84449 3.2546978 7.7520866l0 0c0 6.0547543 -4.9751167 10.963106 -11.112236 10.963106l0 0c-6.1371183 0 -11.112236 -4.908352 -11.112236 -10.963106z" fill-rule="evenodd"/><path stroke="#000000" stroke-width="1.0" stroke-linejoin="round" stroke-linecap="butt" d="m1.8818704 30.75374l0 0c0 -6.054756 4.9751177 -10.963106 11.112236 -10.963106l0 0c2.9471483 0 5.77359 1.1550388 7.857538 3.2110195c2.0839481 2.0559807 3.2546978 4.84449 3.2546978 7.7520866l0 0c0 6.0547543 -4.9751167 10.963106 -11.112236 10.963106l0 0c-6.1371183 0 -11.112236 -4.908352 -11.112236 -10.963106z" fill-rule="evenodd"/><path fill="#000000" d="m21.44786 18.530794l7.552761 0l-3.7763805 14.844133l3.7763805 14.844135l-7.552761 0l3.7763805 -14.844135z" fill-rule="evenodd"/><path stroke="#000000" stroke-width="1.0" stroke-linejoin="round" stroke-linecap="butt" d="m21.44786 18.530794l7.552761 0l-3.7763805 14.844133l3.7763805 14.844135l-7.552761 0l3.7763805 -14.844135z" fill-rule="evenodd"/></g></svg>