<svg version="1.1" viewBox="0.0 0.0 50.0 50.0" fill="none" stroke="none" stroke-linecap="square" stroke-miterlimit="10" xmlns:xlink="http://www.w3.org/1999/xlink" xmlns="http://www.w3.org/2000/svg"><clipPath id="p.0"><path d="m0 0l50.0 0l0 50.0l-50.0 0l0 -50.0z" clip-rule="nonzero"/></clipPath><g clip-path="url(#p.0)"><path fill="#000000" fill-opacity="0.0" d="m0 0l50.0 0l0 50.0l-50.0 0z" fill-rule="evenodd"/><path fill="#000000" d="m21.22345 18.630533l7.552761 0l-3.7763805 14.844133l3.7763805 14.844135l-7.552761 0l3.7763805 -14.844135z" fill-rule="evenodd"/><path stroke="#000000" stroke-width="1.0" stroke-linejoin="round" stroke-linecap="butt" d="m21.22345 18.630533l7.552761 0l-3.7763805 14.844133l3.7763805 14.844135l-7.552761 0l3.7763805 -14.844135z" fill-rule="evenodd"/><path fill="#000000" d="m25.0 32.553806c9.632545 23.645668 47.19948 0 0 -30.401575c-47.199474 30.401575 -9.632545 54.047245 0 30.401575z" fill-rule="evenodd"/><path stroke="#000000" stroke-width="1.0" stroke-linejoin="round" stroke-linecap="butt" d="m25.0 32.553806c9.632545 23.645668 47.19948 0 0 -30.401575c-47.199474 30.401575 -9.632545 54.047245 0 30.401575z" fill-rule="evenodd"/></g></svg>